<svg id="Vorlage" xmlns="http://www.w3.org/2000/svg" width="16" height="16" viewBox="0 0 16 16"><title>Typo3 Icons</title><g id="bs-thumbnail-element"><path d="M1,1V15H15V1H1ZM2,2H14V14H2V2Z" style="fill:#999"/><rect x="2" y="2" width="12" height="12" style="fill:#e1ffc8"/><path d="M8.5,3V13H13V3H8.5Zm1,1H12v8H9.5V4Z" style="fill:#676767"/><path d="M3,3V13H7.5V3H3ZM4,4H6.5v8H4V4Z" style="fill:#676767"/><path d="M3,3H7.5V7.5H3V3Z" style="fill:#59f"/><path d="M6,6.75H3.75L4.31,6l0.56-.75L5.44,6Z" style="fill:#fff"/><path d="M6.75,6.75h-2l0.5-.5,0.5-.5,0.5,0.5Z" style="fill:#fff"/><circle cx="6.38" cy="4.87" r="0.38" style="fill:#fff"/><path d="M8.5,3H13V7.5H8.5V3Z" style="fill:#59f"/><path d="M11.5,6.75H9.25L9.81,6l0.56-.75L10.94,6Z" style="fill:#fff"/><path d="M12.25,6.75h-2l0.5-.5,0.5-.5,0.5,0.5Z" style="fill:#fff"/><circle cx="11.88" cy="4.87" r="0.38" style="fill:#fff"/><rect x="10" y="8" width="1.5" height="1" style="fill:#999"/><rect x="10" y="10" width="1.5" height="1" style="fill:#999"/><rect x="4.5" y="8" width="1.5" height="1" style="fill:#999"/><rect x="4.5" y="10" width="1.5" height="1" style="fill:#999"/></g></svg>