<svg id="Vorlage" xmlns="http://www.w3.org/2000/svg" width="16" height="16" viewBox="0 0 16 16"><title>Typo3 Icons</title><g id="bs-carousel-element"><rect width="16" height="16" style="fill:#fff"/><path d="M1,1V15H15V1H1ZM2,2H14V14H2V2Z" style="fill:#999"/><rect x="2" y="2" width="12" height="12" style="fill:#ffc8ff"/><rect x="3" y="3" width="10" height="6" style="fill:#676767"/><rect x="5.5" y="10" width="1" height="1" style="fill:#676767"/><rect x="7.5" y="10" width="1" height="1" style="fill:#676767"/><rect x="9.5" y="10" width="1" height="1" style="fill:#676767"/><rect x="3.91" y="6.21" width="3" height="1" transform="translate(6.33 -1.86) rotate(45)" style="fill:#fff"/><rect x="3.91" y="4.79" width="3" height="1" transform="translate(-2.16 5.38) rotate(-45)" style="fill:#fff"/><rect x="9.09" y="4.79" width="3" height="1" transform="translate(14.33 16.52) rotate(-135)" style="fill:#fff"/><rect x="9.09" y="6.21" width="3" height="1" transform="translate(22.81 3.96) rotate(135)" style="fill:#fff"/></g></svg>