<svg id="Vorlage" xmlns="http://www.w3.org/2000/svg" width="16" height="16" viewBox="0 0 16 16"><title>Typo3 Icons</title><g id="bs-gallery"><rect width="16" height="16" style="fill:#fff"/><path d="M1,1V15H15V1H1ZM2,2H14V14H2V2Z" style="fill:#999"/><path d="M3,3H7V7H3V3Z" style="fill:#59f"/><path d="M5.67,6.33h-2l0.5-.67L4.67,5l0.5,0.67Z" style="fill:#fff"/><path d="M6.33,6.33H4.56L5,5.89l0.44-.44L5.89,5.89Z" style="fill:#fff"/><circle cx="6" cy="4.67" r="0.33" style="fill:#fff"/><path d="M9,3h4V7H9V3Z" style="fill:#59f"/><path d="M11.67,6.33h-2l0.5-.67L10.67,5l0.5,0.67Z" style="fill:#fff"/><path d="M12.33,6.33H10.56L11,5.89l0.44-.44,0.44,0.44Z" style="fill:#fff"/><circle cx="12" cy="4.67" r="0.33" style="fill:#fff"/><path d="M3,9H7v4H3V9Z" style="fill:#59f"/><path d="M5.67,12.33h-2l0.5-.67L4.67,11l0.5,0.67Z" style="fill:#fff"/><path d="M6.33,12.33H4.56L5,11.89l0.44-.44,0.44,0.44Z" style="fill:#fff"/><circle cx="6" cy="10.67" r="0.33" style="fill:#fff"/><path d="M9,9h4v4H9V9Z" style="fill:#59f"/><path d="M11.67,12.33h-2l0.5-.67,0.5-.67,0.5,0.67Z" style="fill:#fff"/><path d="M12.33,12.33H10.56L11,11.89l0.44-.44,0.44,0.44Z" style="fill:#fff"/><circle cx="12" cy="10.67" r="0.33" style="fill:#fff"/></g></svg>