<svg id="Vorlage" xmlns="http://www.w3.org/2000/svg" width="16" height="16" viewBox="0 0 16 16"><title>Typo3 Icons</title><g id="ge-4_col"><rect width="16" height="16" style="fill:#fff"/><path d="M1,1V15H15V1H1ZM2,2H14V14H2V2Z" style="fill:#999"/><path d="M3,3V13H6.25V3H3ZM4,4H5.25v8H4V4Z" style="fill:#676767"/><path d="M9.75,3V13H13V3H9.75Zm1,1H12v8H10.75V4Z" style="fill:#676767"/><path d="M7.5,3V13h3.25V3H7.5Zm1,1H9.75v8H8.5V4Z" style="fill:#676767"/><path d="M5.25,3V13H8.5V3H5.25Zm1,1H7.5v8H6.25V4Z" style="fill:#676767"/></g></svg>