<svg id="Vorlage" xmlns="http://www.w3.org/2000/svg" width="16" height="16" viewBox="0 0 16 16"><title>Typo3 Icons</title><g id="ge-accordion-element"><rect width="16" height="16" style="fill:#fff"/><path d="M1,1V15H15V1H1ZM2,2H14V14H2V2Z" style="fill:#999"/><rect x="2" y="2" width="12" height="12" style="fill:#ffffc8"/><path d="M8,5h4V9H8V5Z" style="fill:#59f"/><path d="M10.67,8.33h-2l0.5-.67L9.67,7l0.5,0.67Z" style="fill:#fff"/><path d="M11.33,8.33H9.56L10,7.89l0.44-.44,0.44,0.44Z" style="fill:#fff"/><circle cx="11" cy="6.67" r="0.33" style="fill:#fff"/><rect x="3" y="3" width="10" height="1" style="fill:#676767"/><rect x="4" y="5" width="3" height="2" style="fill:#999"/><rect x="4" y="8" width="3" height="1" style="fill:#999"/><rect x="3" y="10" width="10" height="1" style="fill:#676767"/><rect x="3" y="12" width="10" height="1" style="fill:#676767"/></g></svg>