<svg id="Vorlage" xmlns="http://www.w3.org/2000/svg" width="16" height="16" viewBox="0 0 16 16"><title>Typo3 Icons</title><g id="ge-accordion-container"><rect width="16" height="16" style="fill:#fff"/><path d="M1,1V15H15V1H1ZM2,2H14V14H2V2Z" style="fill:#999"/><rect x="4" y="4" width="8" height="8" style="fill:#ffffc8"/><path d="M3,3V13H13V3H3ZM4,4h8v8H4V4Z" style="fill:#676767"/><path d="M8,6.2h2.4V8.6H8V6.2Z" style="fill:#59f"/><path d="M9.6,8.2H8.4l0.3-.4L9,7.4,9.3,7.8Z" style="fill:#fff"/><path d="M10,8.2H8.93L9.2,7.93l0.27-.27L9.73,7.93Z" style="fill:#fff"/><circle cx="9.8" cy="7.2" r="0.2" style="fill:#fff"/><rect x="5" y="5" width="6" height="0.6" style="fill:#999"/><rect x="5.6" y="6.2" width="1.8" height="1.2" style="fill:#999"/><rect x="5.6" y="8" width="1.8" height="0.6" style="fill:#999"/><rect x="5" y="9.2" width="6" height="0.6" style="fill:#999"/><rect x="5" y="10.4" width="6" height="0.6" style="fill:#999"/></g></svg>