<svg id="Vorlage" xmlns="http://www.w3.org/2000/svg" width="16" height="16" viewBox="0 0 16 16"><title>Typo3 Icons</title><g id="ge-thumbnail-container"><rect width="16" height="16" style="fill:#fff"/><path d="M1,1V15H15V1H1ZM2,2H14V14H2V2Z" style="fill:#999"/><rect x="4" y="4" width="8" height="8" style="fill:#e1ffc8"/><path d="M3,3V13H13V3H3ZM4,4h8v8H4V4Z" style="fill:#676767"/><path d="M8.3,5v6H11V5H8.3ZM8.9,5.6h1.5v4.8H8.9V5.6Z" style="fill:#999"/><path d="M5,5v6H7.7V5H5ZM5.6,5.6H7.1v4.8H5.6V5.6Z" style="fill:#999"/><path d="M5,5H7.7V7.7H5V5Z" style="fill:#59f"/><path d="M6.8,7.25H5.45L5.79,6.8l0.34-.45L6.46,6.8Z" style="fill:#fff"/><path d="M7.25,7.25H6l0.3-.3,0.3-.3,0.3,0.3Z" style="fill:#fff"/><circle cx="7.02" cy="6.12" r="0.23" style="fill:#fff"/><path d="M8.3,5H11V7.7H8.3V5Z" style="fill:#59f"/><path d="M10.1,7.25H8.75L9.09,6.8l0.34-.45L9.76,6.8Z" style="fill:#fff"/><path d="M10.55,7.25H9.35l0.3-.3,0.3-.3,0.3,0.3Z" style="fill:#fff"/><circle cx="10.33" cy="6.12" r="0.22" style="fill:#fff"/><rect x="9.2" y="8" width="0.9" height="0.6" style="fill:#999"/><rect x="9.2" y="9.2" width="0.9" height="0.6" style="fill:#999"/><rect x="5.9" y="8" width="0.9" height="0.6" style="fill:#999"/><rect x="5.9" y="9.2" width="0.9" height="0.6" style="fill:#999"/></g></svg>