<svg id="Vorlage" xmlns="http://www.w3.org/2000/svg" width="16" height="16" viewBox="0 0 16 16"><title>Typo3 Icons</title><g id="ge-carousel-container"><rect width="16" height="16" style="fill:#fff"/><path d="M1,1V15H15V1H1ZM2,2H14V14H2V2Z" style="fill:#999"/><path d="M3,3V13H13V3H3ZM4,4h8v8H4V4Z" style="fill:#676767"/><rect x="4" y="4" width="8" height="8" style="fill:#ffc8ff"/><rect x="5" y="5.2" width="6" height="3.6" style="fill:#999"/><rect x="6.5" y="9.4" width="0.6" height="0.6" style="fill:#999"/><rect x="7.7" y="9.4" width="0.6" height="0.6" style="fill:#999"/><rect x="8.9" y="9.4" width="0.6" height="0.6" style="fill:#999"/><rect x="5.55" y="7.12" width="1.8" height="0.6" transform="translate(7.14 -2.39) rotate(45)" style="fill:#fff"/><rect x="5.55" y="6.28" width="1.8" height="0.6" transform="translate(-2.76 6.49) rotate(-45)" style="fill:#fff"/><rect x="8.65" y="6.28" width="1.8" height="0.6" transform="translate(11.66 17.98) rotate(-135)" style="fill:#fff"/><rect x="8.65" y="7.12" width="1.8" height="0.6" transform="translate(21.56 5.92) rotate(135)" style="fill:#fff"/></g></svg>