<svg id="Vorlage" xmlns="http://www.w3.org/2000/svg" width="16" height="16" viewBox="0 0 16 16"><title>Typo3 Icons</title><g id="ge-modal"><rect width="16" height="16" style="fill:#fff"/><path d="M1,1V15H15V1H1ZM2,2H14V14H2V2Z" style="fill:#999"/><rect x="5" y="3" width="6" height="10" style="fill:#999"/><rect x="3" y="4" width="10" height="8" style="fill:#676767"/><path d="M8,7h4v4H8V7Z" style="fill:#999"/><path d="M10.67,10.33h-2l0.5-.67L9.67,9l0.5,0.67Z" style="fill:#fff"/><path d="M11.33,10.33H9.56L10,9.89l0.44-.44,0.44,0.44Z" style="fill:#fff"/><circle cx="11" cy="8.67" r="0.33" style="fill:#fff"/><rect x="4" y="5" width="8" height="1" style="fill:#999"/><rect x="4" y="7" width="3" height="1" style="fill:#999"/><rect x="4" y="9" width="3" height="1" style="fill:#999"/></g></svg>