<svg id="Vorlage" xmlns="http://www.w3.org/2000/svg" width="16" height="16" viewBox="0 0 16 16"><title>Typo3 Icons</title><g id="ge-parallax_wrapper"><rect width="16" height="16" style="fill:#fff"/><path d="M1,1V15H15V1H1ZM2,2H14V14H2V2Z" style="fill:#999"/><rect x="3" y="3" width="10" height="10" style="fill:#999"/><path d="M3,5.5H13v5H3v-5Z" style="fill:#676767"/><path d="M10.4,9.5H8l0.6-.83,0.6-.83L9.8,8.67Z" style="fill:#fff"/><path d="M11.2,9.5H9.07L9.6,8.94l0.53-.56,0.53,0.56Z" style="fill:#fff"/><ellipse cx="10.8" cy="7.42" rx="0.4" ry="0.42" style="fill:#fff"/><rect x="4.62" y="4.62" width="3" height="3" transform="translate(6.12 -2.54) rotate(45)" style="fill:#676767"/><rect x="4.62" y="8.62" width="3" height="3" transform="translate(8.95 -1.36) rotate(45)" style="fill:#676767"/><rect x="4" y="6.5" width="3" height="1" style="fill:#999"/><rect x="4" y="8.5" width="3" height="1" style="fill:#999"/></g></svg>